<svg data-v-fde0c5aa="" xmlns="http://www.w3.org/2000/svg" viewBox="0 0 300 300" class="font"><!----><defs data-v-fde0c5aa=""><!----></defs><rect data-v-fde0c5aa="" fill="#EDF2F3" x="0" y="0" width="300px" height="300px" class="logo-background-square"></rect><defs data-v-fde0c5aa=""><linearGradient data-v-fde0c5aa="" gradientTransform="rotate(25)" id="31578326-c13e-4fcf-a59c-2f581cfbf68b" x1="0%" y1="0%" x2="100%" y2="0%"><stop data-v-fde0c5aa="" offset="0%" stop-color="#20484F" stop-opacity="1"></stop><stop data-v-fde0c5aa="" offset="100%" stop-color="#4E9BAB" stop-opacity="1"></stop></linearGradient></defs><g data-v-fde0c5aa="" id="a1b9db0f-d41c-454e-b451-f38a7c8fa364" fill="url(#31578326-c13e-4fcf-a59c-2f581cfbf68b)" transform="matrix(3.8725576400756836,0,0,3.8725576400756836,34.462242899919225,129.04946433545203)"><path d="M7.80 10.22L3.15 5.52L7.10 0.57L5.95 0.57L2.34 5.11L2.34 0.57L1.43 0.57L1.43 10.22L2.34 10.22L2.34 5.98L6.55 10.22ZM13.43 3.68L13.43 7.31C13.41 8.89 12.29 9.48 11.26 9.48C10.19 9.48 9.41 8.71 9.41 7.45L9.41 3.68L8.51 3.68L8.51 7.49C8.50 9.30 9.58 10.36 11.16 10.36C11.97 10.36 13.03 10.00 13.43 9.07L13.43 10.22L14.32 10.22L14.32 3.68ZM19.45 10.36C21.56 10.36 22.68 8.92 22.68 7.56C22.68 6.16 21.62 5.33 20.09 4.96L18.79 4.65C17.35 4.31 17.21 3.54 17.21 3.09C17.21 2.02 18.23 1.33 19.32 1.33C20.48 1.33 21.36 2.02 21.42 3.08L22.34 3.08C22.29 1.47 20.99 0.46 19.35 0.46C17.75 0.46 16.28 1.50 16.28 3.09C16.28 3.86 16.58 5.03 18.56 5.50L19.87 5.81C20.82 6.05 21.76 6.55 21.76 7.60C21.76 8.51 20.99 9.49 19.45 9.49C18.09 9.49 17.22 8.58 17.12 7.63L16.21 7.63C16.28 9.03 17.56 10.36 19.45 10.36ZM27.26 3.68L25.76 3.68L25.76 1.08L24.88 1.08L24.88 3.68L23.69 3.68L23.69 4.45L24.88 4.45L24.88 10.22L25.76 10.22L25.76 4.45L27.26 4.45ZM33.96 3.68L33.96 4.94C33.47 4.06 32.47 3.54 31.36 3.54C29.53 3.54 28.04 4.96 28.04 6.94C28.04 8.93 29.54 10.36 31.36 10.36C32.45 10.36 33.47 9.84 33.96 8.95L33.96 10.22L34.86 10.22L34.86 3.68ZM31.43 9.51C30.06 9.51 28.94 8.39 28.94 6.93C28.94 5.49 30.06 4.40 31.43 4.40C32.73 4.40 33.96 5.39 33.96 6.97C33.96 8.48 32.79 9.51 31.43 9.51ZM40.05 3.54C39.03 3.54 38.33 4.17 38.01 5.28L38.01 3.68L37.10 3.68L37.10 10.22L38.01 10.22L38.01 7.76C38.01 6.15 38.49 4.41 40.04 4.41C40.28 4.41 40.59 4.45 40.92 4.59L41.09 3.74C40.84 3.61 40.42 3.54 40.05 3.54ZM45.16 3.68L43.67 3.68L43.67 1.08L42.78 1.08L42.78 3.68L41.59 3.68L41.59 4.45L42.78 4.45L42.78 10.22L43.67 10.22L43.67 4.45L45.16 4.45ZM52.50 6.93C52.50 4.86 51.14 3.54 49.28 3.54C47.43 3.54 45.95 4.86 45.95 6.93C45.95 9.00 47.43 10.36 49.28 10.36C50.51 10.36 51.63 9.77 52.21 8.72L51.44 8.39C51.00 9.10 50.20 9.51 49.31 9.51C47.99 9.51 47.01 8.72 46.86 7.32L52.49 7.32C52.50 7.20 52.50 7.06 52.50 6.93ZM46.87 6.55C47.04 5.15 47.99 4.40 49.28 4.40C50.55 4.40 51.49 5.19 51.62 6.55ZM57.20 3.54C56.18 3.54 55.48 4.17 55.16 5.28L55.16 3.68L54.25 3.68L54.25 10.22L55.16 10.22L55.16 7.76C55.16 6.15 55.64 4.41 57.19 4.41C57.43 4.41 57.74 4.45 58.07 4.59L58.24 3.74C57.99 3.61 57.57 3.54 57.20 3.54Z"></path></g><!----><!----></svg>